<?xml version="1.0" standalone="no"?>
<!DOCTYPE svg PUBLIC "-//W3C//DTD SVG 20010904//EN"
 "http://www.w3.org/TR/2001/REC-SVG-20010904/DTD/svg10.dtd">
<svg version="1.0" xmlns="http://www.w3.org/2000/svg"
 width="1024.000000pt" height="1024.000000pt" viewBox="0 0 1024.000000 1024.000000"
 preserveAspectRatio="xMidYMid meet">

<g transform="translate(0.000000,1024.000000) scale(0.100000,-0.100000)"
fill="#000000" stroke="none">
<path d="M3520 6939 c-145 -19 -328 -88 -447 -170 -83 -58 -212 -190 -272
-279 -63 -94 -110 -199 -144 -318 -21 -75 -22 -92 -24 -847 -2 -486 0 -776 7
-785 8 -13 296 -15 2471 -18 2221 -3 2463 -1 2485 13 l24 15 0 718 c0 545 -3
721 -12 730 -9 9 -193 12 -768 12 -817 0 -850 2 -1050 56 -215 58 -510 194
-845 389 -281 164 -510 286 -648 345 -291 124 -543 169 -777 139z m197 -111
l56 -43 -46 -9 c-45 -8 -50 -6 -112 34 -36 23 -62 46 -59 51 3 5 28 9 55 9 43
0 57 -6 106 -42z m209 24 c6 -4 28 -26 49 -50 35 -40 37 -43 14 -38 -13 3 -40
8 -59 11 -22 4 -54 23 -85 51 l-50 46 60 -7 c33 -4 65 -10 71 -13z m-448 -63
c40 -22 70 -44 67 -49 -3 -5 -23 -15 -44 -21 -35 -10 -43 -8 -122 31 l-84 43
40 18 c56 25 61 24 143 -22z m661 10 c41 -15 63 -30 84 -59 l27 -39 -58 20
c-44 15 -68 30 -91 59 -18 22 -29 40 -25 40 4 0 32 -9 63 -21z m-871 -99 c109
-43 109 -42 60 -74 l-43 -28 -85 26 c-47 15 -91 26 -97 26 -7 0 -13 4 -13 9 0
10 79 71 92 71 5 0 43 -14 86 -30z m1141 -10 c34 -17 61 -45 61 -64 0 -16
-103 42 -125 70 l-26 34 25 -10 c14 -5 43 -18 65 -30z m-284 -20 c183 -41 360
-109 770 -295 353 -161 614 -266 778 -314 70 -20 124 -40 121 -44 -4 -4 -623
-7 -1376 -7 l-1368 0 0 28 c0 66 64 221 133 322 106 154 298 280 493 324 94
21 324 14 449 -14z m506 -88 c43 -28 79 -62 64 -62 -17 0 -102 53 -113 70 -17
27 -4 25 49 -8z m-1541 -37 c51 -14 96 -28 98 -30 2 -2 -11 -20 -30 -41 l-35
-36 -77 16 c-43 9 -89 16 -101 16 -13 0 -26 4 -29 8 -5 8 61 92 72 92 4 0 50
-11 102 -25z m1810 -116 c21 -17 16 -16 -26 5 -27 13 -57 32 -65 42 -11 14 -6
13 26 -5 22 -12 51 -31 65 -42z m-1935 -75 c101 -10 99 -8 69 -65 -23 -47 -27
-49 -57 -45 -18 3 -67 8 -109 11 -43 4 -78 11 -78 16 0 4 10 29 22 54 21 44
24 46 58 41 19 -3 62 -8 95 -12z m0 -226 c3 -3 0 -28 -6 -57 l-11 -51 -41 0
c-23 0 -73 3 -111 7 l-68 6 6 44 c3 25 9 49 12 55 7 11 208 7 219 -4z m200
-278 l0 -55 -45 0 -45 0 -3 44 c-5 65 1 73 50 69 l43 -3 0 -55z m190 0 l0 -55
-45 0 -45 0 -3 44 c-5 65 1 73 50 69 l43 -3 0 -55z m193 31 c2 -13 1 -39 -3
-58 -6 -33 -7 -34 -48 -31 -42 3 -42 3 -45 47 -5 65 1 73 50 69 37 -3 44 -7
46 -27z m186 13 c3 -9 6 -28 6 -44 0 -49 -9 -60 -50 -60 -25 0 -40 5 -44 16
-8 21 -8 89 1 97 14 14 81 7 87 -9z m191 -44 l0 -55 -45 0 -45 0 -3 44 c-5 65
1 73 50 69 l43 -3 0 -55z m190 0 l0 -55 -45 0 -45 0 -3 44 c-5 65 1 73 50 69
l43 -3 0 -55z m190 0 l0 -55 -45 0 -45 0 -3 44 c-5 65 1 73 50 69 l43 -3 0
-55z m190 0 l0 -55 -45 0 -45 0 -3 44 c-5 65 1 73 50 69 l43 -3 0 -55z m193
21 c2 -19 1 -45 -3 -58 -5 -21 -10 -24 -48 -21 -42 3 -42 3 -45 47 -5 65 1 73
50 69 41 -3 43 -5 46 -37z m187 16 c4 -13 4 -36 1 -53 -2 -16 -5 -33 -5 -37
-1 -5 -20 -7 -43 -5 l-43 3 -3 58 -3 57 45 0 c39 0 46 -3 51 -23z m190 -37 l0
-55 -47 -3 -48 -3 0 54 c0 29 3 57 7 61 4 4 25 6 48 4 l40 -3 0 -55z m193 31
c2 -13 1 -39 -3 -58 -6 -33 -7 -34 -48 -31 -42 3 -42 3 -45 47 -5 65 1 73 50
69 37 -3 44 -7 46 -27z m186 13 c11 -28 6 -81 -8 -93 -8 -7 -30 -11 -48 -9
-33 3 -33 3 -36 61 l-3 57 44 0 c32 0 47 -5 51 -16z m184 -41 l-3 -58 -40 0
-40 0 -3 58 -3 57 46 0 46 0 -3 -57z m192 -4 l0 -60 -42 3 -43 3 -3 58 -3 57
46 0 45 0 0 -61z m188 -1 l3 -58 -46 0 -45 0 0 61 0 60 43 -3 42 -3 3 -57z
m190 5 l-3 -58 -42 -3 -43 -3 0 60 0 61 45 0 46 0 -3 -57z m198 31 c4 -14 2
-40 -3 -57 -8 -29 -12 -32 -48 -32 l-40 0 -3 58 -3 57 45 0 c41 0 46 -3 52
-26z m184 -35 l0 -60 -42 3 -43 3 -3 58 -3 57 46 0 45 0 0 -61z m188 4 l-3
-58 -42 -3 -43 -3 0 54 c0 29 3 57 7 60 3 4 24 7 45 7 l39 0 -3 -57z m190 -5
l3 -58 -46 0 -45 0 0 61 0 60 43 -3 42 -3 3 -57z m190 5 l-3 -58 -42 -3 -43
-3 0 60 0 61 45 0 46 0 -3 -57z m190 0 l-3 -58 -42 -3 -43 -3 0 60 0 61 45 0
46 0 -3 -57z m187 -3 l0 -55 -39 -3 c-24 -2 -42 2 -47 10 -11 16 -12 92 -2
102 4 4 25 6 48 4 l40 -3 0 -55z m-3293 -198 l33 -32 3 -338 c3 -296 1 -341
-13 -368 -35 -66 -17 -64 -599 -64 l-526 0 -32 29 -33 29 0 360 c0 346 1 361
20 382 11 12 29 26 40 31 11 4 257 7 547 6 l528 -2 32 -33z m717 28 c43 -11
76 -43 85 -84 7 -28 6 -28 -26 -22 -18 3 -147 20 -286 37 -198 24 -256 28
-268 18 -22 -18 -21 -701 1 -719 12 -10 67 -4 289 34 150 25 279 46 285 46 34
0 -5 -102 -48 -124 -44 -23 -527 -24 -571 -1 -58 30 -60 41 -60 409 l0 336 28
31 c19 21 41 34 68 38 67 11 463 12 503 1z m866 -4 c63 -27 63 -25 67 -406 3
-375 3 -371 -53 -404 -23 -14 -69 -16 -326 -16 -281 0 -300 1 -331 20 -37 23
-66 81 -58 115 5 21 23 25 268 64 145 23 280 47 301 52 l37 10 0 179 c0 125
-4 181 -12 186 -6 4 -137 24 -291 45 -153 21 -285 40 -291 42 -20 8 -7 63 23
91 31 30 47 31 389 34 190 2 250 -1 277 -12z m719 8 c57 -8 106 -49 106 -88 0
-18 5 -26 18 -26 9 0 27 -3 40 -6 19 -6 22 -3 22 26 0 45 44 86 101 95 24 3
176 5 337 3 l294 -3 34 -38 35 -38 -3 -349 -3 -350 -28 -27 -27 -28 -308 -3
c-169 -2 -321 0 -339 3 -17 3 -45 19 -62 34 -25 24 -31 37 -31 71 0 34 -3 41
-16 36 -9 -3 -27 -6 -40 -6 -19 0 -24 -5 -24 -25 0 -39 -27 -83 -60 -100 -24
-12 -76 -15 -286 -15 l-256 0 -32 33 -33 32 -6 154 c-4 85 -7 235 -7 333 0
234 12 265 109 279 62 9 406 11 465 3z m-3376 -943 c9 -5 12 -25 10 -62 l-3
-54 -45 0 -45 0 -3 49 c-2 27 -1 55 2 62 6 15 63 19 84 5z m197 -56 l0 -60
-45 0 -45 0 -3 49 c-5 70 0 78 50 74 l43 -3 0 -60z m190 0 l0 -60 -45 0 -45 0
-3 49 c-5 70 0 78 50 74 l43 -3 0 -60z m193 21 c2 -22 1 -50 -3 -63 -5 -21
-10 -24 -48 -21 l-42 3 -3 49 c-5 70 0 78 50 74 42 -3 43 -4 46 -42z m187 -21
l0 -60 -45 0 -45 0 -3 49 c-5 70 0 78 50 74 l43 -3 0 -60z m193 41 c2 -10 1
-38 -3 -63 l-6 -44 -42 3 -42 3 -3 49 c-5 70 0 78 50 74 32 -2 44 -8 46 -22z
m180 12 c14 -14 16 -86 3 -106 -5 -8 -23 -12 -47 -10 l-39 3 -3 49 c-2 27 -1
55 2 62 7 17 67 19 84 2z m190 0 c17 -17 15 -93 -2 -107 -8 -7 -30 -11 -48 -9
-32 3 -33 4 -36 57 -2 37 1 57 10 62 19 13 62 11 76 -3z m196 -4 c9 -23 7 -87
-3 -102 -5 -8 -23 -12 -47 -10 l-39 3 -3 49 c-2 27 -1 55 2 62 8 20 82 19 90
-2z m184 4 c14 -14 16 -86 3 -106 -5 -8 -23 -12 -47 -10 l-39 3 -3 49 c-2 27
-1 55 2 62 7 17 67 19 84 2z m194 2 c2 -5 1 -35 0 -65 l-4 -56 -41 3 -42 3 -3
63 -3 62 45 0 c24 0 46 -4 48 -10z m192 -12 c8 -33 7 -81 -3 -96 -5 -8 -23
-12 -47 -10 l-39 3 -3 49 c-4 67 1 76 47 76 32 0 40 -4 45 -22z m184 10 c15
-15 16 -57 2 -93 -9 -23 -15 -26 -47 -23 -38 3 -38 3 -41 52 -2 27 -1 55 2 62
7 17 67 19 84 2z m192 -54 l0 -65 -42 3 -43 3 -3 63 -3 62 46 0 45 0 0 -66z
m178 57 c9 -5 12 -25 10 -62 l-3 -54 -42 -3 -43 -3 0 59 c0 32 3 62 7 65 9 10
55 8 71 -2z m197 -56 l0 -60 -40 0 -40 0 -3 49 c-4 69 1 78 45 74 l38 -3 0
-60z m195 -1 l0 -65 -42 3 -43 3 -3 63 -3 62 46 0 45 0 0 -66z m185 1 l0 -60
-40 0 -40 0 -3 49 c-4 69 1 78 45 74 l38 -3 0 -60z m190 0 l0 -60 -40 0 -40 0
-3 49 c-4 69 1 78 45 74 l38 -3 0 -60z m183 56 c9 -5 12 -25 10 -62 l-3 -54
-40 0 -40 0 -3 49 c-2 27 -1 55 2 62 6 15 53 19 74 5z m200 -53 l-3 -63 -33
-3 c-44 -4 -62 12 -62 58 0 62 7 70 57 70 l44 0 -3 -62z m187 -3 l0 -60 -39
-3 c-45 -4 -56 7 -56 60 0 60 7 69 54 66 l41 -3 0 -60z m190 0 l0 -60 -40 0
-40 0 -3 49 c-4 69 1 78 45 74 l38 -3 0 -60z m190 0 l0 -60 -45 0 -45 0 -3 49
c-5 70 0 78 50 74 l43 -3 0 -60z"/>
<path d="M2698 3972 c-46 -28 -58 -68 -58 -186 0 -191 20 -209 242 -214 l147
-4 6 -42 c4 -24 5 -54 3 -67 l-3 -24 -197 -3 -198 -2 0 -66 0 -65 235 3 235 3
29 30 c33 33 34 40 32 202 -1 99 -2 104 -30 135 l-29 33 -164 5 -163 5 -3 67
-3 67 195 3 c107 2 198 7 202 11 9 9 8 103 -1 117 -4 6 -97 10 -228 10 -191 0
-226 -3 -249 -18z"/>
<path d="M5287 3983 c-4 -3 -7 -32 -7 -64 0 -67 2 -69 127 -69 l83 0 2 -272 3
-273 68 -3 c51 -2 67 0 67 10 0 8 2 70 4 138 2 69 4 186 5 261 l1 136 91 6
c50 4 95 9 100 13 10 6 12 84 3 108 -5 14 -39 16 -273 16 -147 0 -271 -3 -274
-7z"/>
<path d="M7155 3977 c-3 -6 -4 -161 -3 -342 l3 -330 61 -3 c57 -3 62 -1 67 20
3 13 4 140 2 283 -2 143 -4 288 -5 323 l0 62 -60 0 c-40 0 -62 -4 -65 -13z"/>
<path d="M3288 3801 l-33 -29 -3 -186 c-5 -284 -1 -288 250 -284 l163 3 3 54
c2 37 -1 57 -10 62 -7 5 -70 9 -139 9 l-126 0 -6 68 c-9 91 -8 184 1 199 5 9
50 13 142 15 l135 3 0 55 0 55 -172 3 -172 2 -33 -29z"/>
<path d="M3768 3801 l-33 -29 0 -199 c0 -280 -5 -275 265 -271 l175 3 3 54 c2
36 -1 57 -10 63 -7 5 -71 8 -143 7 -71 0 -136 -1 -142 0 -8 1 -13 16 -13 41
l0 40 150 0 c178 0 170 -6 170 135 0 104 -15 156 -48 174 -13 7 -85 11 -181
11 l-161 0 -32 -29z m282 -141 l0 -50 -90 0 -89 0 -7 35 c-11 61 -5 65 96 65
l90 0 0 -50z"/>
<path d="M4304 3806 c-22 -18 -29 -35 -35 -82 -10 -82 -11 -396 0 -412 5 -9
26 -12 67 -10 l59 3 3 203 2 202 100 0 100 0 2 -202 3 -203 59 -3 c41 -2 62 1
67 10 5 7 9 104 9 216 0 306 3 302 -242 302 -161 0 -168 -1 -194 -24z"/>
<path d="M4863 3818 c-44 -21 -53 -63 -53 -247 0 -270 3 -273 272 -269 l173 3
3 49 c2 27 -2 54 -8 60 -6 7 -70 13 -158 16 l-147 5 0 35 0 35 150 3 c127 2
152 5 163 19 8 11 12 55 12 131 0 112 0 114 -29 143 l-29 29 -164 -1 c-93 0
-172 -5 -185 -11z m267 -158 l0 -51 -92 3 -93 3 -3 33 c-6 59 -2 62 98 62 l90
0 0 -50z"/>
<path d="M5847 3804 l-27 -27 0 -239 0 -239 63 3 62 3 3 202 2 202 73 3 72 3
0 55 0 55 -111 3 c-108 3 -111 2 -137 -24z"/>
<path d="M6156 3814 c-10 -26 -7 -79 6 -92 8 -8 56 -12 149 -12 147 0 148 -1
141 -52 l-4 -28 -138 0 c-176 0 -170 5 -170 -152 0 -108 2 -117 24 -141 33
-36 52 -39 221 -35 l147 3 29 33 29 32 0 191 c0 201 -7 236 -49 259 -12 6 -95
10 -199 10 -155 0 -181 -2 -186 -16z m304 -311 c0 -71 -4 -73 -101 -73 l-89 0
0 50 0 50 95 0 95 0 0 -27z"/>
<path d="M6701 3802 c-28 -28 -28 -30 -36 -194 -9 -207 -4 -238 41 -278 l35
-30 172 2 172 3 3 50 c5 71 -5 75 -160 75 l-128 0 0 140 0 140 135 0 c123 0
135 2 145 19 11 22 13 61 4 85 -5 14 -31 16 -181 16 l-175 0 -27 -28z"/>
<path d="M7381 3708 c-45 -68 -81 -130 -81 -139 0 -15 49 -92 140 -221 l34
-48 67 0 c37 0 71 5 74 10 4 6 -11 34 -32 63 -22 29 -63 84 -91 124 l-51 72
85 121 c46 66 82 125 79 130 -4 6 -37 10 -75 10 l-69 0 -80 -122z"/>
</g>
</svg>
